<?xml version="1.0" encoding="utf-8"?>
<!DOCTYPE svg PUBLIC "-//W3C//DTD SVG 1.1//EN" "http://www.w3.org/Graphics/SVG/1.1/DTD/svg11.dtd">
<svg version="1.1" xmlns="http://www.w3.org/2000/svg" xmlns:xlink="http://www.w3.org/1999/xlink" x="0px" y="0px" width="1024px" height="1024px" viewBox="0 0 1024 1024" enable-background="new 0 0 1024 1024" xml:space="preserve">
<metadata> Free Icon Download -- www.onlinewebfonts.com </metadata>

  <path d="M0.021487 930.371576c0-278.914384 0-557.829791 0-836.744175 0.324388-0.317225 0.815575-0.581238 0.940418-0.962931 0.352017-1.078565 0.598634-2.197038 0.805342-3.315512 0.688685-3.734044 1.174756-7.513114 2.033309-11.206226 7.000438-30.113855 27.713178-55.474452 55.81726-68.49193 9.379625-4.344958 19.193131-7.150864 29.439496-8.486278 1.375324-0.179079 2.844791-0.14224 3.999081-1.14201 279.485389 0 558.971801 0 838.45719 0 0.338714 0.591471 0.952698 0.554632 1.499144 0.632403 2.915399 0.417509 5.861498 0.681522 8.747221 1.248434 11.738345 2.306532 22.943548 6.157233 33.286104 12.230556 23.14207 13.591553 37.954427 33.739429 46.077432 59.058071 1.24741 3.88754 2.184759 7.872295 2.358721 11.993149 0.030699 0.726547 0.324388 1.442862 0.496304 2.163269 0 283.101753 0 566.201459 0 849.301166-0.607844 0.829901-0.455371 1.812275-0.559748 2.746554-0.159636 1.412163-0.211824 2.854001-0.544399 4.226255-0.938372 3.872191-1.796926 7.780197-3.036149 11.56029-11.579733 35.307134-42.416042 61.649082-79.106686 67.731614-1.557472 0.257873-3.226484 0.169869-4.650927 1.062192-281.95872 0-563.918463 0-845.877183 0-1.424442-0.896416-3.095501-0.776689-4.65195-1.037632-10.372232-1.741667-20.261463-4.916986-29.641087-9.689686-22.665209-11.532661-48.269353-36.696784-53.707203-74.856895-0.306992-2.157129-0.733711-4.295839-1.091868-6.445806C0.994652 931.23934 0.640588 930.718477 0.021487 930.371576zM356.66314 252.68193c1.547239 0.034792 2.673899 0.081864 3.800559 0.081864 31.486108 0.00307 62.971194 0.00307 94.457302 0.00307 0.666172 0 1.333368 0.024559 1.997494-0.01228 0.543376-0.029676 1.083681-0.134053 1.797949-0.228197 0.035816-1.169639 0.095167-2.196015 0.095167-3.222391 0.008186-7.800663 0.00307-15.600303 0.005117-23.399943 0-5.04183-0.00921-10.083659 0.01228-15.124466 0.00307-0.725524-0.214894-1.535983 0.704035-2.326998 42.763966 0.00921 85.745896-0.01535 128.727827 0.027629 0.358157 0 0.714268 0.13917 1.11745 0.222057 0.435928 1.378393 0.23536 2.713808 0.23536 4.019547 0.010233 126.039601 0.010233 252.079202 0.010233 378.116757 0 1.046842-0.019443 2.093684 0.016373 3.139503 0.014326 0.430812-0.152473 0.968048 0.613984 1.306762 2.934842-1.460258 5.944386-3.048429 9.033747-4.469801 3.193739-1.468444 6.429433-2.857071 9.708106-4.123924 3.189645-1.232061 6.429433-2.348488 9.694803-3.360538 3.266393-1.01205 6.567579-1.932002 9.898441-2.705622 3.421936-0.793062 6.90527-1.324158 10.348696-2.034333 3.329838-0.684592 6.760984-0.735757 10.160407-1.473561 0.285502-1.669012 0.174985-3.185552 0.174985-4.688789 0.00614-138.310066 0.005117-276.620132 0.005117-414.930197 0-0.856507 0.035816-1.715061-0.022513-2.567475-0.036839-0.541329-0.214894-1.072425-0.36225-1.755993-135.64333 0-271.186376 0-406.730445 0.010233-0.357134 0-0.714268 0.160659-0.99977 0.229221-0.12075 0.285502-0.240477 0.452301-0.25685 0.629333-0.045025 0.471744-0.063445 0.947582-0.063445 1.422396 0.023536 17.406438 0.050142 34.811854 0.078795 52.218292 0 0.089028 0.031722 0.188288 0.075725 0.265036 0.046049 0.080841 0.125867 0.141216 0.344854 0.37453 1.032516 0.243547 2.263553 0.122797 3.479241 0.12382 35.861766 0.007163 71.723531 0.005117 107.584274 0.00614 0.951675 0 1.902326-0.008186 2.852978 0.026606 0.35918 0.013303 0.714268 0.13303 1.372254 0.265036C356.673373 223.315088 356.615045 237.83171 356.66314 252.68193zM662.936639 588.527954c-76.528977 0.254803-137.854695 61.8343-138.254807 137.610124-0.408299 77.290317 62.251809 139.322116 138.707109 139.117454 76.020394-0.202615 138.005121-61.85579 137.975445-138.427746C801.335732 650.842185 739.910755 588.695776 662.936639 588.527954zM361.068474 523.518335c0.420579-0.156566 0.680499-0.338714 0.940418-0.339738 30.343075-0.019443 60.688197-0.024559 91.031273-0.020466 0.364297 0 0.727571 0.148379 1.357927 0.285502 0 15.301498 0 30.585599 0 45.729507-10.946306 10.777461-21.717627 21.381983-32.353872 31.854499-0.36225 6.192026-0.240477 12.135388 0.323365 14.32424 0.877997 0.019443 1.813299 0.054235 2.749624 0.056282 5.4225 0.00614 10.847046-0.091074 16.264429 0.051165 2.079358 0.054235 3.532453-0.600681 5.007037-2.032286 11.325953-10.999518 22.729677-21.920242 34.107819-32.864502 2.12029-2.039449 4.241604-4.078899 6.265704-6.025227 0.072655-0.462534 0.155543-0.741897 0.155543-1.022283 0.00921-20.736277 0.013303-41.4746 0.013303-62.210877 0-0.474814-0.036839-0.948605-0.066515-1.423419-0.00614-0.090051-0.054235-0.181125-0.093121-0.267083-0.036839-0.084934-0.085958-0.162706-0.217964-0.408299-17.446347-7.860015-35.026748-15.779382-52.66036-23.722284-0.031722-1.086751-0.084934-2.028193-0.084934-2.971681-0.00307-50.415226 0.002047-100.831476-0.028653-151.246703-0.001023-1.863441 0.397043-3.518127 1.190105-5.193279 5.047969-10.651594 10.033517-21.334911 15.037485-32.006971 2.622734-5.594415 5.247514-11.189853 7.861038-16.788361 0.267083-0.573051 0.763386-1.151219 0.041956-1.974981-0.905626 0-1.946328 0-2.988054 0-31.581276 0-63.162552 0-94.743828 0-0.666172 0-1.335415-0.035816-1.99647 0.021489-0.425695 0.036839-0.839111 0.213871-1.378393 0.361227 0.456395 1.056052 0.808412 1.932002 1.209548 2.786463 7.346315 15.664771 14.676257 31.337729 22.075785 46.977941 1.043772 2.206248 1.517563 4.399193 1.514493 6.845918-0.042979 49.749054-0.031722 99.500155-0.031722 149.249209 0 0.666172 0.029676 1.334391-0.01228 1.99647-0.040932 0.648776-0.155543 1.294482-0.24457 1.989307-17.621333 8.014534-35.251875 15.823384-52.78418 23.823592-0.058328 0.839111-0.144286 1.496074-0.144286 2.152013-0.007163 20.261463 0.00614 40.522925-0.031722 60.784388-0.002047 1.451048 0.416486 2.485611 1.482771 3.488451 4.572132 4.299933 9.063423 8.686846 13.58746 13.039991 8.635681 8.309246 17.290805 16.59905 25.888624 24.945135 1.169639 1.136893 2.343371 1.703805 4.006244 1.681292 5.89629-0.082888 11.794627-0.024559 17.692964-0.042979 0.724501-0.002047 1.447978-0.145309 2.240017-0.229221 0.051165-0.73985 0.119727-1.297552 0.122797-1.855254 0.010233-3.425006-0.066515-6.852058 0.040932-10.272971 0.046049-1.489934-0.514723-2.490727-1.539053-3.473101-3.433192-3.290953-6.804986-6.644327-10.196223-9.979282-6.375198-6.268774-12.725836-12.56313-19.138896-18.793018-1.181919-1.147126-1.660826-2.354628-1.655709-4.00522 0.053212-13.601786 0.027629-27.205619 0.036839-40.808428C360.927257 525.153578 361.020378 524.322653 361.068474 523.518335zM240.931303 745.324046c1.51654 0.027629 2.735297 0.067538 3.955078 0.067538 88.269369 0.004093 176.536692 0.002047 264.806061 0.002047 0.76134 0 1.524726 0.030699 2.281973-0.014326 0.545422-0.031722 1.085728-0.166799 1.6158-0.25378 0.051165-0.409322 0.12689-0.690732 0.11461-0.969071-0.035816-0.760317-0.088004-1.51961-0.169869-2.275833-1.033539-9.392928-1.016143-18.799158-0.205685-28.199249 0.704035-8.15575 2.054799-16.21531 4.115738-24.14798 0.12996-0.500397 0.096191-1.043772 0.155543-1.786693-1.430582 0-2.656503 0-3.883447 0-82.4662 0-164.9324 0-247.3986 0-0.571005 0-1.144056 0.035816-1.710968-0.007163-1.279133-0.096191-2.400676 0.271176-3.521197 0.88823-6.163373 3.39226-12.355399 6.732331-18.531052 10.104125-0.571005 0.311085-1.090844 0.715291-1.620917 1.067308C240.931303 714.920596 240.931303 729.932498 240.931303 745.324046z" />
<path d="M579.234285 661.797701c6.203282-6.225795 12.299117-12.343119 18.495236-18.561751 0.799202 0.50449 1.523703 0.914836 2.199085 1.394766 6.355755 4.51892 12.700253 9.05012 19.052938 13.573133 0.769526 0.548492 1.557472 1.067308 2.397606 1.639337 7.863085-3.25923 15.666818-6.494924 23.596418-9.781784 1.729387-9.373485 3.091408-18.765389 4.777817-28.203342 0.62524-0.098237 1.169639-0.257873 1.715061-0.258896 7.609305-0.016373 15.217586-0.01535 22.826891-0.00614 0.551562 0.001023 1.102101 0.096191 1.814322 0.162706 1.762133 9.41544 3.110851 18.803251 4.857635 28.268834 7.850805 3.242857 15.654538 6.466272 23.602557 9.748015 0.765433-0.51063 1.560542-1.006933 2.320858-1.550309 6.269797-4.473895 12.533454-8.959046 18.803251-13.43294 0.76134-0.543376 1.549286-1.046842 2.472308-1.666966 6.229888 6.137791 12.301164 12.274558 18.524912 18.475793-0.452301 0.732687-0.801249 1.378393-1.223874 1.972934-4.573155 6.432503-9.159614 12.856819-13.736862 19.287275-0.548492 0.769526-1.065262 1.560542-1.630127 2.388397 3.260254 7.872295 6.492878 15.677051 9.769504 23.589254 9.379625 1.760087 18.775622 3.082198 28.180829 4.827959 0.520863 2.233877 0.209778 4.417613 0.26299 6.575766 0.054235 2.186805 0.01228 4.374634 0.01228 6.562463s0.019443 4.375657-0.00614 6.562463c-0.024559 2.164293 0.122797 4.338818-0.13917 6.635117-9.455349 1.77646-18.845207 3.102664-28.281113 4.866844-3.25002 7.863085-6.474458 15.667841-9.760295 23.61893 5.424546 7.797593 11.05273 15.442714 16.582677 23.320125-0.36532 0.48914-0.64366 0.969071-1.02126 1.350764-5.358031 5.403057-10.727319 10.793834-16.099676 16.181541-0.394996 0.396019-0.836041 0.743944-1.391696 1.235131-1.656733-1.006933-3.14155-2.172479-4.681626-3.248997-1.558495-1.088798-3.098571-2.204202-4.647857-3.309372-1.549286-1.105171-3.098571-2.207271-4.64581-3.311419-1.548262-1.105171-3.091408-2.215458-4.640694-3.318582-1.547239-1.101077-3.098571-2.196015-4.580319-3.245927-2.185782 0.532119-20.772093 8.137331-24.001647 9.825786-1.546216 9.215896-3.114944 18.570961-4.688789 27.949562-0.506537 0.110517-0.868787 0.257873-1.232061 0.257873-8.267291 0.013303-16.535605 0.010233-24.905226 0.010233-0.205685-0.579191-0.471744-1.081635-0.560772-1.613754-1.38658-8.248871-2.746554-16.500812-4.124947-24.750707-0.10847-0.64673-0.313132-1.277086-0.512676-2.078335-7.779174-3.215228-15.58086-6.441713-23.52274-9.723455-0.861624 0.591471-1.724271 1.159406-2.563382 1.760087-6.189979 4.422729-12.374842 8.852622-18.566868 13.274328-0.760317 0.542352-1.551332 1.037632-2.449795 1.636267-6.258541-6.164397-12.33084-12.301164-18.565844-18.515702 1.307785-2.134617 2.768043-3.987824 4.112668-5.915733 1.358951-1.950422 2.759857-3.872191 4.14132-5.806239 1.381463-1.935072 2.761903-3.870144 4.14132-5.806239 1.37737-1.933025 2.750647-3.870144 4.075829-5.735631-0.503467-2.173502-8.140401-20.863167-9.82067-24.015973-9.209756-1.545192-18.568914-3.115967-27.791973-4.662183-0.159636-0.25685-0.212848-0.335644-0.257873-0.418532-0.044002-0.081864-0.110517-0.169869-0.11154-0.255827-0.050142-7.891737-0.096191-15.784498-0.134053-23.676236-0.002047-0.565888 0.064468-1.131777 0.10847-1.858324 0.610914-0.183172 1.212618-0.432859 1.837858-0.538259 8.153704-1.375324 16.310477-2.728134 24.464181-4.097318 0.647753-0.109494 1.281179-0.314155 2.111081-0.522909 3.209088-7.758708 6.435573-15.559371 9.712199-23.483854-0.525979-0.785899-1.025353-1.578961-1.568728-2.341325-4.420683-6.192026-8.851599-12.375865-13.274328-18.566868C580.463276 663.631466 579.897388 662.769842 579.234285 661.797701zM610.431821 726.737736c-0.110517 28.229948 22.342868 52.695153 52.498678 52.757574 29.674856 0.063445 52.529377-23.667026 52.694129-52.274574 0.166799-28.941146-22.842241-52.768831-52.356438-52.897767C633.301691 674.189939 610.502429 698.377828 610.431821 726.737736z" />


</svg>